<?xml version="1.0" encoding="iso-8859-1"?>
<!-- Generator: Adobe Illustrator 19.0.0, SVG Export Plug-In . SVG Version: 6.00 Build 0)  -->
<svg version="1.1" id="Capa_1" xmlns="http://www.w3.org/2000/svg" xmlns:xlink="http://www.w3.org/1999/xlink" x="0px" y="0px"
	 viewBox="0 0 190.106 190.106" style="enable-background:new 0 0 190.106 190.106;" xml:space="preserve">
<g>
	<path style="fill:#010002;" d="M151.554,175.202H38.578c-2.101,0-3.802-1.7-3.802-3.802V70.224h7.603v97.375h105.372V71.471h7.603
		V171.4C155.355,173.502,153.655,175.202,151.554,175.202z"/>
	<path style="fill:#010002;" d="M184.997,105.939l-90.54-82.086L5.146,105.924L0,100.326l91.865-84.418
		c1.441-1.329,3.672-1.344,5.127-0.015l93.113,84.418L184.997,105.939z"/>
	<path style="fill:#010002;" d="M122.149,171.408h-7.603v-59.514H75.593v59.514H67.99v-63.315c0-2.101,1.7-3.802,3.802-3.802h46.556
		c2.101,0,3.802,1.7,3.802,3.802V171.408z"/>
</g>
<g>
</g>
<g>
</g>
<g>
</g>
<g>
</g>
<g>
</g>
<g>
</g>
<g>
</g>
<g>
</g>
<g>
</g>
<g>
</g>
<g>
</g>
<g>
</g>
<g>
</g>
<g>
</g>
<g>
</g>
</svg>
